<svg width="80" height="80" viewBox="0 0 80 80" fill="none" xmlns="http://www.w3.org/2000/svg">
<path fill-rule="evenodd" clip-rule="evenodd" d="M40.5 8.35016C58.2558 8.35016 72.6498 22.7442 72.6498 40.5C72.6498 58.2559 58.2558 72.6499 40.5 72.6499C22.7441 72.6499 8.3501 58.2559 8.3501 40.5C8.3501 22.7442 22.7441 8.35016 40.5 8.35016Z" fill="#6EE7FC"/>
<path opacity="0.2" fill-rule="evenodd" clip-rule="evenodd" d="M40.5 65.3086C28.3489 65.3086 17.4635 59.8237 10.1222 51.2166C14.5101 63.7053 26.4925 72.6499 40.5 72.6499C54.5076 72.6499 66.4056 63.7053 70.8779 51.2166C63.5366 59.8237 52.6512 65.3086 40.5 65.3086Z" fill="#072D72"/>
<path fill-rule="evenodd" clip-rule="evenodd" d="M40.5001 9.61589C23.5391 9.61589 9.70032 23.4547 9.70032 40.4156C9.70032 57.3766 23.5391 71.2154 40.5001 71.2154C57.461 71.2154 71.2998 57.3766 71.2998 40.4156C71.2998 23.4547 57.461 9.61589 40.5001 9.61589ZM40.5 74C22.0202 74 7 58.9798 7 40.5C7 22.0202 22.0202 7 40.5 7C58.9798 7 74 22.0202 74 40.5C74 58.9798 58.9798 74 40.5 74Z" fill="#070505"/>
<path fill-rule="evenodd" clip-rule="evenodd" d="M20.0636 54.7186C22.1732 48.9805 27.7424 39.2765 40.653 39.2765C53.648 39.2765 58.9641 48.9805 60.9893 54.8029C61.3268 55.8155 61.1581 56.9125 60.3986 57.7563C59.7235 58.6002 58.6266 58.9377 57.5296 58.7689C53.9855 58.0939 46.9817 56.9125 40.5686 56.9125C34.1555 56.9125 26.983 58.0939 23.2701 58.7689C22.1732 58.9377 21.1606 58.6002 20.4011 57.7563C19.8104 56.8281 19.6417 55.7311 20.0636 54.7186Z" fill="#070505"/>
<mask id="mask0_27_3662" style="mask-type:alpha" maskUnits="userSpaceOnUse" x="23" y="41" width="35" height="17">
<path fill-rule="evenodd" clip-rule="evenodd" d="M23.8606 54.6341C23.3551 55.9842 24.5356 57.4187 25.9702 57.0812C29.3463 56.4062 35.2523 55.4779 40.6536 55.4779C46.0541 55.4779 51.7069 56.4062 55.0831 57.0812C56.5168 57.3344 57.6981 55.9842 57.1918 54.6341C55.5885 50.0774 51.2006 41.9767 40.6536 41.9767C30.0214 41.9767 25.5491 49.9931 23.8606 54.6341Z" fill="white"/>
</mask>
<g mask="url(#mask0_27_3662)">
<path fill-rule="evenodd" clip-rule="evenodd" d="M40.4842 49.5289C46.6847 49.5289 51.7122 54.705 51.7122 61.0894C51.7122 67.4738 46.6847 72.6498 40.4842 72.6498C34.2838 72.6498 29.2562 67.4738 29.2562 61.0894C29.2562 54.705 34.2838 49.5289 40.4842 49.5289Z" fill="#FF2630"/>
</g>
<mask id="mask1_27_3662" style="mask-type:alpha" maskUnits="userSpaceOnUse" x="23" y="41" width="35" height="17">
<path fill-rule="evenodd" clip-rule="evenodd" d="M23.8606 54.6341C23.3551 55.9842 24.5356 57.4187 25.9702 57.0812C29.3463 56.4062 35.2523 55.4779 40.6536 55.4779C46.0541 55.4779 51.7069 56.4062 55.0831 57.0812C56.5168 57.3344 57.6981 55.9842 57.1918 54.6341C55.5885 50.0774 51.2006 41.9767 40.6536 41.9767C30.0214 41.9767 25.5491 49.9931 23.8606 54.6341Z" fill="white"/>
</mask>
<g mask="url(#mask1_27_3662)">
<path opacity="0.2" fill-rule="evenodd" clip-rule="evenodd" d="M49.5131 51.7229C48.163 51.4698 46.8129 51.2166 45.3784 51.0478C43.4376 50.8791 41.7499 52.3136 41.7499 54.3388V56.1952C41.7499 56.7859 41.2436 57.2078 40.6529 57.1234C40.1466 57.039 39.8935 56.6171 39.8935 56.1108V54.2544C39.8935 52.3136 38.2058 50.8791 36.265 51.0478C34.5774 51.2166 32.9741 51.4698 31.4552 51.8073C33.9867 50.3728 37.1089 49.6133 40.4842 49.6133C43.8595 49.529 46.9816 50.3728 49.5131 51.7229Z" fill="#650B0E"/>
</g>
<mask id="mask2_27_3662" style="mask-type:alpha" maskUnits="userSpaceOnUse" x="23" y="41" width="35" height="17">
<path fill-rule="evenodd" clip-rule="evenodd" d="M23.8606 54.6341C23.3551 55.9842 24.5356 57.4187 25.9702 57.0812C29.3463 56.4062 35.2523 55.4779 40.6536 55.4779C46.0541 55.4779 51.7069 56.4062 55.0831 57.0812C56.5168 57.3344 57.6981 55.9842 57.1918 54.6341C55.5885 50.0774 51.2006 41.9767 40.6536 41.9767C30.0214 41.9767 25.5491 49.9931 23.8606 54.6341Z" fill="white"/>
</mask>
<g mask="url(#mask2_27_3662)">
<path fill-rule="evenodd" clip-rule="evenodd" d="M40.4841 50.8791C34.8701 50.8791 30.2434 55.4358 30.2434 61.0894C30.2434 66.7431 34.8085 71.2998 40.4841 71.2998C46.1597 71.2998 50.7248 66.7431 50.7248 61.0894C50.7248 55.4358 46.0981 50.8791 40.4841 50.8791ZM40.4842 74C33.7597 74 28.2698 68.1776 28.2698 61.0894C28.2698 54.0013 33.7597 48.1788 40.4842 48.1788C47.2087 48.1788 52.6986 54.0013 52.6986 61.0894C52.6986 68.262 47.2087 74 40.4842 74Z" fill="#070505"/>
</g>
<path fill-rule="evenodd" clip-rule="evenodd" d="M49.0419 30.2373C52.6164 33.259 56.8068 35.1728 61.4724 35.7939C62.6917 35.939 62.8537 37.663 61.6875 38.0199C56.147 39.7903 49.5921 36.7634 47.1796 31.4752C46.6826 30.3082 48.1593 29.3614 49.0419 30.2373Z" fill="#070505"/>
<path fill-rule="evenodd" clip-rule="evenodd" d="M33.8209 31.4748C31.9873 35.4754 27.8668 38.1327 23.5448 38.4871C22.2605 38.579 17.9746 38.6069 18.5603 36.5977C18.686 36.1893 19.0201 35.9024 19.41 35.8189C20.6614 35.548 21.8647 35.4012 22.9929 35.0687C26.3969 34.2325 29.4001 32.2984 32.1046 30.1247C33.0032 29.41 34.3019 30.4479 33.8209 31.4748Z" fill="#070505"/>
</svg>
