<svg width="80" height="80" viewBox="0 0 80 80" fill="none" xmlns="http://www.w3.org/2000/svg">
<path fill-rule="evenodd" clip-rule="evenodd" d="M40.4999 8.43091C58.2575 8.43091 72.6532 22.8267 72.6532 40.5842C72.6532 58.3417 58.2575 72.7374 40.4999 72.7374C22.7424 72.7374 8.34668 58.3417 8.34668 40.5842C8.34668 22.8267 22.7424 8.43091 40.4999 8.43091Z" fill="#45FAA0"/>
<path opacity="0.2" fill-rule="evenodd" clip-rule="evenodd" d="M40.5 65.3304C28.3794 65.3304 17.5214 59.8593 10.1985 51.2739C14.5754 63.7312 26.5276 72.6533 40.5 72.6533C54.4724 72.6533 66.3404 63.7312 70.8015 51.2739C63.4786 59.8593 52.6206 65.3304 40.5 65.3304Z" fill="#053D29"/>
<path fill-rule="evenodd" clip-rule="evenodd" d="M40.5 9.77764C23.4975 9.77764 9.69347 23.5817 9.69347 40.5842C9.69347 57.5867 23.4975 71.3907 40.5 71.3907C57.5025 71.3907 71.3065 57.5867 71.3065 40.5842C71.3065 23.5817 57.4183 9.77764 40.5 9.77764ZM40.5 74C22.0666 74 7 59.0176 7 40.5C7 21.9824 21.9824 7 40.5 7C58.9334 7 74 21.9824 74 40.5C74 59.0176 58.9334 74 40.5 74Z" fill="#070505"/>
<path fill-rule="evenodd" clip-rule="evenodd" d="M50.2803 49.3288C43.2444 50.0047 35.9426 50.7403 29.9421 54.7974C28.7856 55.6593 27.2983 54.2191 28.1231 53.0458C33.1313 46.2885 42.848 44.9115 50.5841 46.8222C51.9738 47.2195 51.712 49.2766 50.2803 49.3288Z" fill="#070505"/>
<path fill-rule="evenodd" clip-rule="evenodd" d="M29.3139 30.1114C31.5453 30.1114 33.3541 31.9202 33.3541 34.1516C33.3541 36.383 31.5453 38.1918 29.3139 38.1918C27.0825 38.1918 25.2737 36.383 25.2737 34.1516C25.2737 31.9202 27.0825 30.1114 29.3139 30.1114Z" fill="black"/>
<path fill-rule="evenodd" clip-rule="evenodd" d="M51.6861 30.1114C53.9174 30.1114 55.7263 31.9202 55.7263 34.1516C55.7263 36.383 53.9174 38.1918 51.6861 38.1918C49.4547 38.1918 47.6459 36.383 47.6459 34.1516C47.6459 31.9202 49.4547 30.1114 51.6861 30.1114Z" fill="black"/>
</svg>
