<svg width="80" height="80" viewBox="0 0 80 80" fill="none" xmlns="http://www.w3.org/2000/svg">
<path fill-rule="evenodd" clip-rule="evenodd" d="M40.4999 8.43091C58.2575 8.43091 72.6532 22.8267 72.6532 40.5842C72.6532 58.3417 58.2575 72.7374 40.4999 72.7374C22.7424 72.7374 8.34668 58.3417 8.34668 40.5842C8.34668 22.8267 22.7424 8.43091 40.4999 8.43091Z" fill="#FBD7A7"/>
<path opacity="0.2" fill-rule="evenodd" clip-rule="evenodd" d="M40.5 65.3304C28.3794 65.3304 17.5214 59.8593 10.1985 51.2739C14.5754 63.7312 26.5276 72.6533 40.5 72.6533C54.4724 72.6533 66.3404 63.7312 70.8015 51.2739C63.4786 59.8593 52.6206 65.3304 40.5 65.3304Z" fill="#723105"/>
<path fill-rule="evenodd" clip-rule="evenodd" d="M40.5 9.77764C23.4975 9.77764 9.69347 23.5817 9.69347 40.5842C9.69347 57.5867 23.4975 71.3907 40.5 71.3907C57.5025 71.3907 71.3065 57.5867 71.3065 40.5842C71.3065 23.5817 57.4183 9.77764 40.5 9.77764ZM40.5 74C22.0666 74 7 59.0176 7 40.5C7 21.9824 21.9824 7 40.5 7C58.9334 7 74 21.9824 74 40.5C74 59.0176 58.9334 74 40.5 74Z" fill="#070505"/>
<path fill-rule="evenodd" clip-rule="evenodd" d="M29.314 30.1114C31.5454 30.1114 33.3542 31.9202 33.3542 34.1516C33.3542 36.383 31.5454 38.1918 29.314 38.1918C27.0826 38.1918 25.2738 36.383 25.2738 34.1516C25.2738 31.9202 27.0826 30.1114 29.314 30.1114Z" fill="black"/>
<path fill-rule="evenodd" clip-rule="evenodd" d="M51.6862 30.1114C53.9176 30.1114 55.7264 31.9202 55.7264 34.1516C55.7264 36.383 53.9176 38.1918 51.6862 38.1918C49.4548 38.1918 47.646 36.383 47.646 34.1516C47.646 31.9202 49.4548 30.1114 51.6862 30.1114Z" fill="black"/>
<path fill-rule="evenodd" clip-rule="evenodd" d="M53.5428 51.8628C44.9422 53.2314 36.1582 53.4562 27.5096 52.4024C26.0997 52.1919 26.0652 50.1398 27.4574 49.8772C36.0555 48.4665 44.8404 48.3268 53.4906 49.3377C54.9064 49.5431 54.9409 51.6053 53.5428 51.8628Z" fill="#070505"/>
</svg>
