<svg width="80" height="80" viewBox="0 0 80 80" fill="none" xmlns="http://www.w3.org/2000/svg">
<path fill-rule="evenodd" clip-rule="evenodd" d="M40.2416 8.43091C57.8107 8.43091 72.0537 22.8267 72.0537 40.5842C72.0537 58.3417 57.8107 72.7374 40.2416 72.7374C22.6725 72.7374 8.42944 58.3417 8.42944 40.5842C8.42944 22.8267 22.6725 8.43091 40.2416 8.43091Z" fill="#DCC7FF"/>
<path opacity="0.2" fill-rule="evenodd" clip-rule="evenodd" d="M40.2416 65.3304C28.2496 65.3304 17.5068 59.8593 10.2616 51.2739C14.592 63.7312 26.4175 72.6533 40.2416 72.6533C54.0658 72.6533 65.8079 63.7312 70.2217 51.2739C62.9765 59.8593 52.2336 65.3304 40.2416 65.3304Z" fill="#51137B"/>
<path fill-rule="evenodd" clip-rule="evenodd" d="M40.597 9.77765C23.5944 9.77765 9.79042 23.5817 9.79042 40.5842C9.79042 57.5867 23.5944 71.3907 40.597 71.3907C57.5995 71.3907 71.4035 57.5867 71.4035 40.5842C71.4035 23.5817 57.5153 9.77765 40.597 9.77765ZM40.5969 74C22.1635 74 7.09692 59.0176 7.09692 40.5C7.09692 21.9824 22.0793 7 40.5969 7C59.0303 7 74.0969 21.9824 74.0969 40.5C74.0969 59.0176 59.0303 74 40.5969 74Z" fill="#070505"/>
<path fill-rule="evenodd" clip-rule="evenodd" d="M48.9025 31.9146H44.9051C44.9051 29.3053 42.8232 27.201 40.2416 27.201C37.66 27.201 35.578 29.3053 35.578 31.9146H31.5807C31.5807 27.1169 35.4947 23.1608 40.2416 23.1608C44.9884 23.1608 48.9025 27.1169 48.9025 31.9146Z" fill="#070505"/>
<path fill-rule="evenodd" clip-rule="evenodd" d="M51.9004 50.0113C46.3208 57.4184 34.079 57.3342 28.4994 50.0113C27.9997 49.4221 28.1662 48.5804 28.7492 48.0754C29.2489 47.6546 29.9151 47.6546 30.4147 48.0754C33.3295 50.2638 36.7439 51.5264 40.2415 51.5264C43.7392 51.5264 47.1536 50.2638 50.0683 48.0754C51.2342 47.0654 52.8998 48.7488 51.9004 50.0113Z" fill="#070505"/>
<path fill-rule="evenodd" clip-rule="evenodd" d="M36.5774 26.2751C36.5774 35.3656 29.249 42.7726 20.255 42.7726C11.2609 42.7726 3.9325 35.3656 3.9325 26.3593C8.09639 22.1507 13.8426 19.5414 20.1717 19.5414C26.5008 19.5414 32.4135 22.0666 36.5774 26.2751Z" fill="#8A19E1"/>
<path fill-rule="evenodd" clip-rule="evenodd" d="M5.34819 26.8643C5.6813 34.9447 12.2603 41.4259 20.3382 41.4259C28.4162 41.4259 34.9951 34.9447 35.2449 26.8643C31.2476 22.9925 25.9178 20.804 20.3382 20.804C14.6753 20.804 9.34553 22.9083 5.34819 26.8643ZM20.2549 44.0352C10.5114 44.0352 2.59998 36.0389 2.59998 26.2751C2.59998 25.9384 2.76653 25.6017 3.01636 25.3492C7.67992 20.6357 13.7592 18.1105 20.2549 18.1105C26.7506 18.1105 32.8298 20.6357 37.4934 25.2651C37.7432 25.5176 37.9098 25.8543 37.9098 26.2751C37.9098 36.0389 29.9984 44.0352 20.2549 44.0352Z" fill="#070505"/>
<path fill-rule="evenodd" clip-rule="evenodd" d="M76.4674 26.2751C76.4674 35.3656 69.139 42.7726 60.145 42.7726C51.151 42.7726 43.8225 35.3656 43.8225 26.3593C47.9864 22.1508 53.7326 19.5415 60.0617 19.5415C66.5574 19.4573 72.3035 22.0666 76.4674 26.2751Z" fill="#8A19E1"/>
<path fill-rule="evenodd" clip-rule="evenodd" d="M45.2381 26.8643C45.5713 34.9447 52.1502 41.4259 60.2282 41.4259C68.3061 41.4259 74.8851 34.9447 75.1349 26.8643C71.1376 22.9925 65.8078 20.804 60.2282 20.804C54.5653 20.804 49.2355 22.9083 45.2381 26.8643ZM60.145 44.0352C50.4015 44.0352 42.4901 36.0389 42.4901 26.2751C42.4901 25.9384 42.6567 25.6017 42.9065 25.3492C47.4868 20.7198 53.6493 18.1947 60.145 18.1947C66.6407 18.1947 72.72 20.7198 77.3835 25.3492C77.6334 25.6017 77.7999 25.9384 77.7999 26.3593C77.7999 36.0389 69.8885 44.0352 60.145 44.0352Z" fill="#070505"/>
<path fill-rule="evenodd" clip-rule="evenodd" d="M60.145 37.8065C54.3156 37.8065 49.4855 33.5138 49.4855 28.2952C49.4855 27.8744 49.652 27.5377 49.9851 27.2852C50.235 27.0327 50.5681 26.9485 50.9012 26.9485C51.6507 26.9485 52.2336 27.5377 52.2336 28.2952V28.4636C52.3169 32.1671 55.8979 35.1131 60.2283 35.1131C60.9778 35.1131 61.5608 35.7023 61.5608 36.4598C61.5608 37.2173 60.8945 37.8065 60.145 37.8065Z" fill="#C086F4"/>
<path fill-rule="evenodd" clip-rule="evenodd" d="M20.2548 37.8065C14.3421 37.8065 9.59521 33.5138 9.59521 28.2952C9.59521 27.8744 9.76177 27.5377 10.0116 27.2852C10.2614 27.0327 10.5945 26.9485 10.9277 26.9485C11.6772 26.9485 12.2601 27.5377 12.2601 28.2952V28.4636C12.3434 32.1671 15.9243 35.1131 20.2548 35.1131C21.0043 35.1131 21.5872 35.7023 21.5872 36.4598C21.5872 37.2173 21.0043 37.8065 20.2548 37.8065Z" fill="#C086F4"/>
</svg>
