<svg width="80" height="80" viewBox="0 0 80 80" fill="none" xmlns="http://www.w3.org/2000/svg">
<path fill-rule="evenodd" clip-rule="evenodd" d="M40.5 8.3501C58.2558 8.3501 72.6498 22.7441 72.6498 40.5C72.6498 58.2558 58.2558 72.6498 40.5 72.6498C22.7441 72.6498 8.3501 58.2558 8.3501 40.5C8.3501 22.7441 22.7441 8.3501 40.5 8.3501" fill="#FFBDEB"/>
<path opacity="0.2" fill-rule="evenodd" clip-rule="evenodd" d="M40.5 65.3086C28.3489 65.3086 17.4635 59.8237 10.1222 51.2166C14.5101 63.7053 26.4925 72.6499 40.5 72.6499C54.5076 72.6499 66.4056 63.7053 70.8779 51.2166C63.5366 59.8237 52.6512 65.3086 40.5 65.3086" fill="#650B0E"/>
<path fill-rule="evenodd" clip-rule="evenodd" d="M40.5 9.61587C23.539 9.61587 9.70025 23.4547 9.70025 40.4156C9.70025 57.3766 23.539 71.2154 40.5 71.2154C57.461 71.2154 71.2997 57.3766 71.2997 40.4156C71.2997 23.4547 57.461 9.61587 40.5 9.61587M40.5 74C22.0202 74 7 58.9798 7 40.5C7 22.0202 22.0202 7 40.5 7C58.9798 7 74 22.0202 74 40.5C74 58.9798 58.9798 74 40.5 74" fill="#070505"/>
<path fill-rule="evenodd" clip-rule="evenodd" d="M60.9207 50.9635C58.8111 56.7015 53.2418 66.4055 40.3313 66.4055C27.3363 66.4055 22.0202 56.7015 19.995 50.8791C19.6575 49.8665 19.8262 48.7695 20.5857 47.9257C21.2607 47.0819 22.3577 46.7443 23.4547 46.9131C26.9988 47.5882 34.0025 48.7695 40.4156 48.7695C46.8287 48.7695 54.0013 47.5882 57.7141 46.9131C58.8111 46.7443 59.8237 47.0819 60.5831 47.9257C61.1738 48.8539 61.3426 49.9509 60.9207 50.9635" fill="#070505"/>
<mask id="mask0_27_3662" style="mask-type:alpha" maskUnits="userSpaceOnUse" x="24" y="49" width="34" height="15">
<path fill-rule="evenodd" clip-rule="evenodd" d="M55.742 49.0493C52.3243 49.7175 46.3419 50.6362 40.8723 50.6362V50.6362C35.4027 50.6362 29.6758 49.7175 26.2582 49.0493V49.0493C24.8053 48.7987 23.608 50.1351 24.1208 51.4715V51.4715C25.7446 55.9817 30.1895 64 40.8723 64V64C51.6406 64 56.1702 56.0653 57.8794 51.4715V51.4715C58.3401 50.2696 57.4188 49 56.1719 49V49C56.0317 49 55.8881 49.0159 55.742 49.0493" fill="white"/>
</mask>
<g mask="url(#mask0_27_3662)">
<path fill-rule="evenodd" clip-rule="evenodd" d="M41.0428 54.9794C49.6335 54.9794 56.597 60.1028 56.597 66.4222C56.597 72.7416 49.6335 77.8649 41.0428 77.8649C32.452 77.8649 25.4885 72.7416 25.4885 66.4222C25.4885 60.1028 32.452 54.9794 41.0428 54.9794" fill="#FF2630"/>
</g>
<mask id="mask1_27_3662" style="mask-type:alpha" maskUnits="userSpaceOnUse" x="24" y="49" width="34" height="15">
<path fill-rule="evenodd" clip-rule="evenodd" d="M55.742 49.0493C52.3243 49.7175 46.3419 50.6362 40.8723 50.6362V50.6362C35.4027 50.6362 29.6758 49.7175 26.2582 49.0493V49.0493C24.8053 48.7987 23.608 50.1351 24.1208 51.4715V51.4715C25.7446 55.9817 30.1895 64 40.8723 64V64C51.6406 64 56.1702 56.0653 57.8794 51.4715V51.4715C58.3401 50.2696 57.4188 49 56.1719 49V49C56.0317 49 55.8881 49.0159 55.742 49.0493" fill="white"/>
</mask>
<g mask="url(#mask1_27_3662)">
<path opacity="0.2" fill-rule="evenodd" clip-rule="evenodd" d="M50.1872 57.1511C48.8198 56.9005 47.4524 56.6499 45.9996 56.4829C44.0339 56.3158 42.3247 57.7357 42.3247 59.7403V61.5778C42.3247 62.1625 41.8119 62.5801 41.2136 62.4966C40.7009 62.4131 40.4445 61.9954 40.4445 61.4943V59.6568C40.4445 57.7357 38.7352 56.3158 36.7696 56.4829C35.0603 56.6499 33.4365 56.9005 31.8982 57.2346C34.4621 55.8147 37.6242 55.063 41.0427 55.063C44.4612 54.9795 47.6233 55.8147 50.1872 57.1511" fill="#650B0E"/>
</g>
<mask id="mask2_27_3662" style="mask-type:alpha" maskUnits="userSpaceOnUse" x="24" y="49" width="34" height="15">
<path fill-rule="evenodd" clip-rule="evenodd" d="M55.742 49.0493C52.3243 49.7175 46.3419 50.6362 40.8723 50.6362V50.6362C35.4027 50.6362 29.6758 49.7175 26.2582 49.0493V49.0493C24.8053 48.7987 23.608 50.1351 24.1208 51.4715V51.4715C25.7446 55.9817 30.1895 64 40.8723 64V64C51.6406 64 56.1702 56.0653 57.8794 51.4715V51.4715C58.3401 50.2696 57.4188 49 56.1719 49V49C56.0317 49 55.8881 49.0159 55.742 49.0493" fill="white"/>
</mask>
<g mask="url(#mask2_27_3662)">
<path fill-rule="evenodd" clip-rule="evenodd" d="M41.0427 56.3158C33.2656 56.3158 26.8559 60.8261 26.8559 66.4222C26.8559 72.0183 33.1801 76.5285 41.0427 76.5285C48.9053 76.5285 55.2295 72.0183 55.2295 66.4222C55.2295 60.8261 48.8198 56.3158 41.0427 56.3158M41.0427 79.2013C31.7273 79.2013 24.1211 73.4382 24.1211 66.4222C24.1211 59.4062 31.7273 53.6431 41.0427 53.6431C50.3582 53.6431 57.9644 59.4062 57.9644 66.4222C57.9644 73.5217 50.3582 79.2013 41.0427 79.2013" fill="#070505"/>
</g>
<path fill-rule="evenodd" clip-rule="evenodd" d="M21.888 24.3304C21.3008 19.7913 18.1132 16.3449 14.1706 16.3449C9.89245 16.3449 6.3693 20.5478 6.3693 25.6753C6.3693 25.6753 5.44657 35.8464 21.9719 42.7391C38.581 35.8464 37.5744 25.6753 37.5744 25.6753C37.5744 20.5478 34.0513 16.3449 29.7731 16.3449C25.8306 16.3449 22.559 19.8753 22.0557 24.3304" fill="#FF2630"/>
<path fill-rule="evenodd" clip-rule="evenodd" d="M14.1706 17.6899C10.5635 17.6899 7.71147 21.3043 7.71147 25.6754C7.71147 26.1797 7.20816 34.9217 21.9719 41.3101C36.8195 34.9217 36.3162 26.1797 36.2323 25.8435C36.2323 21.3043 33.2963 17.7739 29.7731 17.7739C26.5855 17.7739 23.8173 20.7159 23.3979 24.5826C23.314 25.2551 22.7268 25.8435 21.9719 25.7594C21.3008 25.8435 20.6297 25.2551 20.5458 24.5826C20.0425 20.6319 17.2743 17.6899 14.1706 17.6899V17.6899ZM21.9719 44C21.8041 44 21.6363 44 21.4686 43.9159C4.18831 36.687 4.94327 25.9275 5.02716 25.5072C5.02716 19.7913 9.13751 15 14.1706 15C17.4421 15 20.3781 17.0174 21.9719 20.1275C23.5657 17.0174 26.5016 15 29.7731 15C34.8062 15 38.9166 19.7913 38.9166 25.6754C38.9166 26.0116 39.7554 36.771 22.4752 44H21.9719Z" fill="#070505"/>
<path fill-rule="evenodd" clip-rule="evenodd" d="M58.965 24.3304C58.3778 19.7913 55.1902 16.3449 51.2476 16.3449C46.9695 16.3449 43.4463 20.5478 43.4463 25.6753C43.4463 25.6753 42.5236 35.8464 59.0489 42.7391C75.6581 35.8464 74.6514 25.6753 74.6514 25.6753C74.6514 20.5478 71.1283 16.3449 66.8502 16.3449C62.9076 16.3449 59.6361 19.8753 59.1328 24.3304" fill="#FF2630"/>
<mask id="mask3_27_3662" style="mask-type:alpha" maskUnits="userSpaceOnUse" x="42" y="15" width="34" height="29">
<path fill-rule="evenodd" clip-rule="evenodd" d="M42.077 15H76V44H42.077V15Z" fill="white"/>
</mask>
<g mask="url(#mask3_27_3662)">
<path fill-rule="evenodd" clip-rule="evenodd" d="M51.1637 17.6899C47.5567 17.6899 44.7046 21.3043 44.7046 25.6754C44.7046 26.1797 44.2013 34.9217 58.965 41.3101C73.8126 34.9217 73.3093 26.1797 73.2254 25.8435C73.2254 21.3043 70.2894 17.7739 66.7663 17.7739C63.5787 17.7739 60.8105 20.7159 60.3911 24.5826C60.3072 25.2551 59.72 25.8435 58.965 25.7594C58.2939 25.8435 57.6229 25.2551 57.539 24.5826C57.1195 20.6319 54.3514 17.6899 51.1637 17.6899V17.6899ZM59.0489 44C58.8811 44 58.7134 44 58.5456 43.9159C41.2653 36.687 42.0203 25.9275 42.1042 25.5072C42.1042 19.7913 46.2145 15 51.2476 15C54.5191 15 57.4551 17.0174 59.0489 20.1275C60.6427 17.0174 63.5787 15 66.8502 15C71.8833 15 75.9936 19.7913 75.9936 25.6754C75.9936 26.0116 76.8325 36.771 59.5522 44H59.0489Z" fill="#070505"/>
</g>
</svg>
